<?xml version="1.0"?>
<svg xmlns="http://www.w3.org/2000/svg" viewBox="0 0 50 50">
    <path style="text-indent:0;text-align:start;line-height:normal;text-transform:none;block-progression:tb;-inkscape-font-specification:Sans" d="M 24.90625 2 A 1.0001 1.0001 0 0 0 24.6875 2.0625 L 2.6875 9.0625 A 1.0001 1.0001 0 0 0 2 10 L 2 47 A 1.0001 1.0001 0 0 0 3 48 L 47 48 A 1.0001 1.0001 0 0 0 48 47 L 48 10 A 1.0001 1.0001 0 0 0 47.3125 9.0625 L 25.3125 2.0625 A 1.0001 1.0001 0 0 0 24.90625 2 z M 25 4.03125 L 46 10.71875 L 46 46 L 42 46 L 42 17 A 1.0001 1.0001 0 0 0 41 16 L 9 16 A 1.0001 1.0001 0 0 0 8.90625 16 A 1.0001 1.0001 0 0 0 8 17 L 8 46 L 4 46 L 4 10.71875 L 25 4.03125 z M 10 18 L 40 18 L 40 46 L 10 46 L 10 18 z M 21.8125 42 A 1.001098 1.001098 0 0 0 22 44 L 28 44 A 1.0001 1.0001 0 1 0 28 42 L 22 42 A 1.0001 1.0001 0 0 0 21.90625 42 A 1.001098 1.001098 0 0 0 21.8125 42 z" overflow="visible" font-family="Sans"/>
</svg>
